<?xml version="1.0" standalone="no"?>
<!DOCTYPE svg PUBLIC "-//W3C//DTD SVG 20010904//EN"
 "http://www.w3.org/TR/2001/REC-SVG-20010904/DTD/svg10.dtd">
<svg version="1.0" xmlns="http://www.w3.org/2000/svg"
 width="700.000000pt" height="700.000000pt" viewBox="0 0 700.000000 700.000000"
 preserveAspectRatio="xMidYMid meet">
<metadata>
Created by potrace 1.11, written by Peter Selinger 2001-2013
</metadata>
<g transform="translate(0.000000,700.000000) scale(0.100000,-0.100000)"
fill="#000000" stroke="none">
<path d="M885 5682 c-11 -7 -16 -3051 -5 -3053 3 -1 101 -2 218 -3 l212 -1 1
35 c0 19 1 314 1 656 l0 621 219 0 219 0 0 -218 0 -219 220 0 219 0 -2 218 -2
217 -200 2 c-110 1 -208 2 -218 2 -16 1 -17 16 -15 218 l3 218 215 0 215 0 3
218 c2 169 -1 217 -10 218 -13 1 -322 0 -390 0 l-38 -1 0 -218 0 -217 -212 1
c-117 1 -216 2 -219 3 -4 0 -7 283 -7 629 0 345 -1 639 -1 654 l-1 26 -208 1
c-114 0 -212 -3 -217 -7z"/>
<path d="M2629 5686 c-1 0 -2 -99 -3 -218 l-1 -218 217 0 c120 0 218 3 219 8
1 9 1 392 0 414 -1 15 -22 17 -216 16 -118 0 -216 -1 -216 -2z"/>
<path d="M3939 5682 c-1 -10 -1 -3012 0 -3037 1 -19 8 -20 214 -20 116 -1 214
2 217 6 3 4 5 299 5 657 l0 649 217 0 c214 0 218 -1 218 -21 1 -12 1 -110 1
-218 l0 -198 219 0 220 0 0 -219 0 -219 219 2 220 1 -2 -217 c-2 -186 0 -217
13 -220 8 -2 107 -4 220 -3 l205 0 0 218 c0 139 -3 217 -10 218 -5 0 -101 1
-213 1 -118 1 -205 5 -209 10 -3 6 -5 104 -5 219 l1 209 -219 0 -220 0 0 219
0 219 208 0 c114 0 212 1 219 1 9 1 12 55 12 211 0 115 2 213 4 217 3 5 100 8
216 8 116 0 212 2 212 5 1 3 2 200 3 438 l1 432 -217 0 c-167 0 -218 -3 -219
-12 0 -7 0 -204 0 -438 l-1 -425 -648 0 c-357 0 -652 4 -657 8 -4 5 -8 202 -8
438 l0 429 657 0 657 0 -1 219 0 220 -874 0 c-481 -1 -874 -4 -875 -7z"/>
<path d="M2189 5223 c0 -27 0 -314 1 -380 l0 -33 217 3 218 2 0 215 0 215
-217 3 -218 2 -1 -27z"/>
<path d="M2189 3493 c-1 -12 -1 -291 0 -365 l1 -66 203 0 c111 0 209 2 217 4
13 3 15 35 15 219 l0 215 -217 0 c-120 0 -218 -3 -219 -7z"/>
<path d="M2645 3062 c-20 -3 -21 -9 -20 -217 0 -118 2 -216 5 -216 30 -7 423
-2 427 5 8 12 8 415 0 423 -6 6 -374 11 -412 5z"/>
<path d="M3500 1531 l0 -220 148 0 c81 0 179 0 218 0 l72 -1 -1 -208 c0 -115
2 -213 6 -218 3 -5 98 -9 219 -9 l213 0 0 218 0 217 -55 1 c-30 0 -129 1 -219
2 l-164 2 1 218 0 217 -219 0 -219 0 0 -219z"/>
<path d="M1328 1312 c-15 -3 -17 -28 -17 -213 0 -115 -2 -213 -5 -217 -2 -4
-99 -7 -215 -7 -116 0 -212 -2 -212 -5 -7 -26 -2 -423 5 -427 13 -8 406 -9
418 -2 7 5 11 84 12 220 l1 214 215 0 215 0 3 -218 c1 -119 6 -217 10 -218 9
-1 380 -1 410 0 l22 1 0 214 c-1 157 -4 215 -13 218 -7 2 -105 4 -219 3 l-208
0 0 220 0 220 -203 0 c-112 0 -211 -1 -219 -3z"/>
<path d="M3078 1312 c-14 -3 -16 -28 -15 -220 l2 -217 215 0 215 0 3 218 c2
170 0 217 -10 218 -37 3 -396 4 -410 1z"/>
<path d="M5707 1312 c-20 -4 -19 17 -18 -228 1 -154 -2 -203 -11 -206 -7 -2
-106 -4 -220 -3 l-208 1 0 -218 c0 -167 3 -218 13 -219 15 -1 409 -1 419 0 4
1 7 96 6 212 0 139 3 214 10 218 6 4 101 6 212 6 127 0 204 3 208 10 4 5 7
103 7 218 l0 207 -50 1 c-277 3 -354 4 -368 1z"/>
<path d="M6129 875 c-1 0 -2 -96 -3 -213 -1 -182 1 -215 14 -221 18 -8 402 -7
416 1 7 5 11 354 5 423 -1 6 -80 10 -216 10 -118 0 -216 0 -216 0z"/>
</g>
</svg>
